<?xml version="1.0" standalone="no"?><!DOCTYPE svg PUBLIC "-//W3C//DTD SVG 1.1//EN" "http://www.w3.org/Graphics/SVG/1.1/DTD/svg11.dtd"><svg t="1632915316430" class="icon" viewBox="0 0 1024 1024" version="1.1" xmlns="http://www.w3.org/2000/svg" p-id="18751" xmlns:xlink="http://www.w3.org/1999/xlink" width="200" height="200"><defs><style type="text/css"></style></defs><path d="M0 0h1024v1024H0z" fill="#001D26" p-id="18752"></path><path d="M690.468571 419.986286a47.104 47.104 0 0 0-35.108571 10.532571 30.134857 30.134857 0 0 0 0 43.885714 170.276571 170.276571 0 0 0 43.885714 29.257143 187.684571 187.684571 0 0 1 69.339429 50.468572A102.4 102.4 0 0 1 785.993143 614.4a95.963429 95.963429 0 0 1-34.523429 79.579429 137.069714 137.069714 0 0 1-87.771428 27.501714A213.723429 213.723429 0 0 1 612.937143 716.8a132.534857 132.534857 0 0 1-36.571429-13.458286 9.801143 9.801143 0 0 1-2.925714-2.486857 11.556571 11.556571 0 0 1-1.024-4.534857v-64.365714a4.973714 4.973714 0 0 1 1.462857-3.949715 5.558857 5.558857 0 0 1 4.388572 0 131.657143 131.657143 0 0 0 41.984 20.041143 171.154286 171.154286 0 0 0 43.885714 5.997715 56.173714 56.173714 0 0 0 36.571428-9.508572 31.158857 31.158857 0 0 0 11.264-24.576 35.986286 35.986286 0 0 0-10.24-23.405714 170.276571 170.276571 0 0 0-42.422857-29.257143 194.267429 194.267429 0 0 1-65.828571-47.981714 104.301714 104.301714 0 0 1 10.678857-135.460572 117.028571 117.028571 0 0 1 86.308571-30.573714 257.755429 257.755429 0 0 1 46.811429 3.510857 117.906286 117.906286 0 0 1 30.281143 8.484572 16.091429 16.091429 0 0 1 2.925714 4.534857 15.652571 15.652571 0 0 1 0.877714 4.534857v59.977143a4.973714 4.973714 0 0 1-1.462857 3.510857c-0.877714 0.877714-2.633143 1.170286-5.266285 0a113.078857 113.078857 0 0 0-33.645715-14.628572 171.739429 171.739429 0 0 0-40.521143-4.973714m-367.616 53.833143c5.12 0 10.24 0.877714 14.628572 0.877714h20.041143A129.024 129.024 0 0 0 424.228571 455.533714c19.748571-11.556571 29.257143-34.816 29.257143-69.485714a78.994286 78.994286 0 0 0-23.990857-63.049143 96.987429 96.987429 0 0 0-66.706286-21.065143H321.828571v170.130286m-74.166857-232.009143c0-1.316571 1.024-2.633143 3.510857-3.510857a15.36 15.36 0 0 1 6.290286-1.609143L307.2 234.057143h59.977143c58.514286 0 101.376 14.628571 126.683428 43.885714a156.964571 156.964571 0 0 1 38.034286 107.52c0 56.027429-16.969143 96.548571-51.2 121.563429a204.8 204.8 0 0 1-124.342857 37.449143h-32.621714v165.595428a5.558857 5.558857 0 0 1-1.024 3.949714 6.436571 6.436571 0 0 1-3.949715 1.024h-66.121142a5.412571 5.412571 0 0 1-3.949715-1.024 7.168 7.168 0 0 1-1.024-3.949714V240.054857M42.861714 43.885714h939.154286v936.228572H42.861714V43.885714M0 0v1024h1024V0H0" fill="#00C8FF" p-id="18753"></path></svg>