<?xml version="1.0" standalone="no"?><!DOCTYPE svg PUBLIC "-//W3C//DTD SVG 1.1//EN" "http://www.w3.org/Graphics/SVG/1.1/DTD/svg11.dtd"><svg t="1632915270021" class="icon" viewBox="0 0 2770 1024" version="1.1" xmlns="http://www.w3.org/2000/svg" p-id="16793" xmlns:xlink="http://www.w3.org/1999/xlink" width="541.015625" height="200"><defs><style type="text/css"></style></defs><path d="M182.122829 63.552109C8.106824 164.000372-51.73995 387.398387 48.798139 561.549132s323.823821 233.862779 497.862283 133.392059 233.975062-323.823821 133.549256-497.907196S356.206204-36.963524 182.122829 63.552109z m459.439082 140.218859l-96.33871 55.624938a574.888338 574.888338 0 0 0-94.317618-118.660546 413.964516 413.964516 0 0 0 44.913152-62.182258 327.866005 327.866005 0 0 1 145.743176 125.217866z m-299.188958 172.780893l-140.73536 81.180521a538.957817 538.957817 0 0 1-50.998883-130.090943 626.22407 626.22407 0 0 0 132.246774-54.255087zM314.39206 255.151613a622.047147 622.047147 0 0 0 111.317245-87.580645 538.553598 538.553598 0 0 1 87.984864 110.037221l-139.724814 80.66402z m45.788958 152.233127l52.930148 91.667742a627.167246 627.167246 0 0 0-113.899751 88.164516 537.543052 537.543052 0 0 1-79.428909-98.808933z m31.573945-18.23474l139.500248-80.52928a537.026551 537.026551 0 0 1 46.125807 119.311786 622.967866 622.967866 0 0 0-132.60608 53.042432z m69.97469-323.37469a381.492308 381.492308 0 0 1-37.77196 51.403102 399.098263 399.098263 0 0 0-51.200993-35.683499 293.395161 293.395161 0 0 0-59.936601-26.947891 329.235856 329.235856 0 0 1 148.909554 11.250745z m-62.878412 78.328536a584.948884 584.948884 0 0 1-102.312159 80.169975L217.13263 86.682382c50.751861-17.224194 117.986849 5.973449 181.763524 57.443921z m-213.337469-39.388834l79.631017 137.928288a589.507569 589.507569 0 0 1-121.377791 50.010794c-13.159553-81.944045 0.583871-152.659802 41.679404-187.916625zM109.992308 171.119107c-8.780521 38.176179-9.341935 82.685112-1.661787 130.135856a389.419479 389.419479 0 0 1-64.427916 7.747519 329.056204 329.056204 0 0 1 66.022333-137.860919z m-71.861042 173.813896a421.891688 421.891688 0 0 0 77.18325-8.668239 569.184368 569.184368 0 0 0 54.883871 139.724814l-96.181514 55.490199a327.866005 327.866005 0 0 1-35.885607-186.524318z m54.052977 217.13263l95.979405-55.377916a567.926799 567.926799 0 0 0 85.986228 106.983127 418.0067 418.0067 0 0 0-46.777047 63.776675 327.416874 327.416874 0 0 1-135.166129-115.359429z m168.873449 128.721092a384.007444 384.007444 0 0 1 39.590943-53.334367c38.176179 31.798511 78.23871 54.502109 116.774194 66.291811a329.07866 329.07866 0 0 1-156.34268-12.957444z m64.652482-79.7433a591.326551 591.326551 0 0 1 105.209057-81.113152l81.741936 141.476427c-51.94206 18.391935-121.534988-6.153102-186.928537-60.340819z m218.435112 42.061166l-81.562283-141.274318a586.341191 586.341191 0 0 1 122.073945-49.000248c13.833251 82.730025 0.494045 154.366501-40.489206 190.297022z m75.633747-66.785856a293.282879 293.282879 0 0 0 6.736972-65.573201 402.646402 402.646402 0 0 0-5.973449-66.157072 375.923077 375.923077 0 0 1 64.944417-6.736973A329.348139 329.348139 0 0 1 619.801489 586.341191z m71.209801-174.330397a408.283003 408.283003 0 0 0-77.834491 7.680149 573.226551 573.226551 0 0 0-50.30273-129.349876l96.114144-55.490199a327.304591 327.304591 0 0 1 32.045534 177.182382z m434.242804-170.041191q-49.404467-69.076427-146.461786-69.076427-87.28871 0-137.366874 63.462283-51.650124 61.845409-51.650124 154.950372 0 102.020223 54.636849 162.248759 50.078164 57.039702 137.366873 57.017246 78.148883 0 129.776551-47.383375 39.456203-37.749504 53.895782-97.192059h-80.416998q-16.707692 38.55794-35.661042 53.895781-26.566129 20.884615-68.312903 20.884616-47.158809 0-75.139703-32.13536-26.566129-31.439206-31.102357-93.172333h297.482258q-0.763524-109.947395-47.046526-173.499503z m-248.931141 109.31861q6.736973-51.403102 32.629404-80.327171 26.543672-28.115633 72.085608-28.115633 95.620099 0 107.005583 108.420347z m648.882754 40.960794q-33.415385-22.456576-99.41526-39.366377-59.195534-16.056452-78.934864-24.904343-31.865881-16.056452-31.865881-36.941067 0-24.881886 21.243921-36.941067 16.685236-11.228288 54.636849-11.228287 41.724318 0 62.227171 14.462034 18.95335 12.867618 28.070719 46.597395h78.17134q-13.653598-130.921836-166.96464-130.921836-71.344541 0-115.359429 32.135359-44.014888 31.439206-44.014889 88.344169 0 53.019975 45.541936 83.538462 27.329653 19.267742 97.147146 36.13263 60.632754 14.462035 78.934864 24.095906 34.897519 16.864888 34.919975 47.383374 0 56.141439-94.115509 56.14144-44.014888 0-65.258809-16.056452-21.243921-17.650868-28.070719-59.442556h-78.95732q13.653598 145.383871 174.554963 145.383871 174.532506 0 174.554962-131.730273 0-55.355459-47.046526-86.682382z m282.32407-209.295285q-37.188089 0-63.754218 23.287469c-15.719603 11.789702-28.340199 24.163275-37.951613 46.103349l7.163647-79.451364h-97.147146v437.364268h97.147146V367.277295c0-36.941067 2.896898-48.798139 23.130273-70.76067q28.834243-31.439206 65.258809-31.326923a183.941812 183.941812 0 0 1 56.92742 8.825435V188.882258c-13.092184-6.939082-30.046898-5.928536-50.774318-5.928536z m149.336228-71.658933a55.08598 55.08598 0 0 0 39.074442-15.562407 56.343548 56.343548 0 0 0 16.52804-40.421837q0-24.904342-15.719603-39.680769-15.045906-15.53995-39.815509-15.562407-24.050993 0-39.074442 15.562407-15.719603 14.798883-15.719603 39.680769a55.961787 55.961787 0 0 0 15.719603 40.421837 55.063524 55.063524 0 0 0 38.984616 15.562407z m-48.865508 499.164764h96.181513V173.252481h-96.181513z" fill="#1296db" p-id="16794"></path></svg>