<?xml version="1.0" standalone="no"?><!DOCTYPE svg PUBLIC "-//W3C//DTD SVG 1.1//EN" "http://www.w3.org/Graphics/SVG/1.1/DTD/svg11.dtd"><svg t="1632914322005" class="icon" viewBox="0 0 1846 1024" version="1.1" xmlns="http://www.w3.org/2000/svg" p-id="10543" xmlns:xlink="http://www.w3.org/1999/xlink" width="360.546875" height="200"><defs><style type="text/css"></style></defs><path d="M43.008 329.3184V768h308.4288v-61.44H114.2784V329.3184H43.008z m501.8624 112.4352c-40.5504 0-72.4992 6.7584-95.8464 21.504-27.648 15.9744-44.8512 41.7792-51.6096 76.8l69.4272 5.5296c3.6864-16.5888 12.9024-28.8768 26.4192-36.864 11.6736-7.3728 27.0336-10.4448 46.6944-10.4448 45.4656 0 68.1984 20.2752 68.1984 62.0544v12.288l-69.4272 1.8432c-46.6944 1.2288-82.944 11.0592-108.7488 29.4912-28.2624 19.0464-41.7792 46.6944-41.7792 82.3296 0 26.4192 9.8304 47.9232 29.4912 65.1264 19.0464 16.5888 44.8512 25.1904 78.0288 25.1904 27.648 0 51.6096-4.9152 71.8848-14.1312 17.8176-8.6016 33.1776-20.2752 45.4656-36.2496V768h65.1264v-202.752c0-38.7072-9.8304-68.1984-29.4912-88.4736-22.1184-23.3472-57.1392-35.0208-103.8336-35.0208z m63.2832 181.248v15.9744c0 24.576-9.8304 44.8512-28.2624 60.8256-18.432 15.36-41.1648 23.3472-68.1984 23.3472-15.36 0-27.648-4.3008-37.4784-11.6736a32.768 32.768 0 0 1-14.1312-27.648c0-38.0928 27.648-57.7536 83.5584-58.9824l64.512-1.8432z m116.224-293.6832v61.44h143.8208V768h71.8848V390.7584h143.7696v-61.44h-359.424z m540.8768 112.4352c-47.3088 0-84.7872 15.9744-111.8208 48.5376-28.2624 31.9488-41.7792 71.2704-41.7792 118.5792 0 52.8384 14.7456 94.0032 44.2368 124.1088 27.648 28.8768 65.1264 43.6224 112.4352 43.6224 42.3936 0 77.4144-12.288 105.6768-36.2496 22.1184-19.6608 36.864-44.8512 44.2368-74.3424h-70.0416c-8.6016 17.8176-17.8176 30.72-28.2624 38.7072-13.5168 9.8304-30.72 14.7456-52.224 14.7456-25.1904 0-44.8512-7.9872-58.368-23.3472-13.5168-15.36-21.504-38.0928-23.9616-67.584h237.7728c0-57.1392-12.9024-101.9904-38.0928-133.9392-27.648-35.6352-67.584-52.8384-119.808-52.8384z m1.8432 57.1392c49.152 0 76.8 25.1904 82.944 76.8h-163.4304c4.3008-25.1904 12.9024-44.2368 25.8048-57.1392 13.5168-13.5168 31.3344-19.6608 54.6816-19.6608z m187.5968-169.5744l146.8416 211.968L1444.864 768h87.8592l113.0496-169.5744L1758.8224 768h87.8592l-157.9008-226.7136 148.0704-211.968H1748.992l-103.2192 154.8288-103.2192-154.8288h-87.8592z" p-id="10544"></path></svg>