<?xml version="1.0" encoding="UTF-8"?>
<!DOCTYPE svg PUBLIC "-//W3C//DTD SVG 1.1//EN" "http://www.w3.org/Graphics/SVG/1.1/DTD/svg11.dtd">
<svg xmlns="http://www.w3.org/2000/svg" version="1.1" width="80px" height="80px" style="shape-rendering:geometricPrecision; text-rendering:geometricPrecision; image-rendering:optimizeQuality; fill-rule:evenodd; clip-rule:evenodd" xmlns:xlink="http://www.w3.org/1999/xlink">
<g><path style="opacity:0.137" fill="#8da5cf" d="M 52.5,1.5 C 56.5,2.16667 60.5,2.83333 64.5,3.5C 60.5,3.5 56.5,3.5 52.5,3.5C 52.5,7.16667 52.5,10.8333 52.5,14.5C 52.1667,14.5 51.8333,14.5 51.5,14.5C 51.5,14.1667 51.5,13.8333 51.5,13.5C 51.5,10.1667 51.5,6.83333 51.5,3.5C 47.8333,3.5 44.1667,3.5 40.5,3.5C 40.5,5.5 40.5,7.5 40.5,9.5C 39.8333,9.5 39.1667,9.5 38.5,9.5C 38.5,7.5 38.5,5.5 38.5,3.5C 34.5,3.5 30.5,3.5 26.5,3.5C 26.5,5.83333 26.5,8.16667 26.5,10.5C 26.5,11.1667 26.1667,11.5 25.5,11.5C 24.208,8.33199 24.208,5.16533 25.5,2C 34.4938,1.50023 43.4938,1.33356 52.5,1.5 Z"/></g>
<g><path style="opacity:1" fill="#dce3f1" d="M 38.5,9.5 C 35.2869,9.19 32.2869,9.52333 29.5,10.5C 28.5,10.5 27.5,10.5 26.5,10.5C 26.5,8.16667 26.5,5.83333 26.5,3.5C 30.5,3.5 34.5,3.5 38.5,3.5C 38.5,5.5 38.5,7.5 38.5,9.5 Z"/></g>
<g><path style="opacity:1" fill="#dce1ef" d="M 51.5,13.5 C 47.9753,11.7696 44.3086,10.4363 40.5,9.5C 40.5,7.5 40.5,5.5 40.5,3.5C 44.1667,3.5 47.8333,3.5 51.5,3.5C 51.5,6.83333 51.5,10.1667 51.5,13.5 Z"/></g>
<g><path style="opacity:1" fill="#dae0ef" d="M 64.5,3.5 C 64.5,7.16667 64.5,10.8333 64.5,14.5C 60.8333,14.5 57.1667,14.5 53.5,14.5C 53.1667,14.5 52.8333,14.5 52.5,14.5C 52.5,10.8333 52.5,7.16667 52.5,3.5C 56.5,3.5 60.5,3.5 64.5,3.5 Z"/></g>
<g><path style="opacity:0.906" fill="#8ea3ce" d="M 52.5,1.5 C 61.0851,1.18344 69.5851,1.51677 78,2.5C 78.6667,19.1667 78.6667,35.8333 78,52.5C 72.5934,53.4732 67.0934,53.8066 61.5,53.5C 62.9009,50.2964 63.9009,46.9631 64.5,43.5C 64.5,43.1667 64.5,42.8333 64.5,42.5C 64.8333,42.5 65.1667,42.5 65.5,42.5C 65.5,45.5 65.5,48.5 65.5,51.5C 69.1667,51.5 72.8333,51.5 76.5,51.5C 76.5,47.8333 76.5,44.1667 76.5,40.5C 72.8333,40.5 69.1667,40.5 65.5,40.5C 65.5,40.1667 65.5,39.8333 65.5,39.5C 69.1667,39.5 72.8333,39.5 76.5,39.5C 76.5,35.8333 76.5,32.1667 76.5,28.5C 72.8333,28.5 69.1667,28.5 65.5,28.5C 65.5,30.1667 65.5,31.8333 65.5,33.5C 64.8333,32.1667 64.1667,30.8333 63.5,29.5C 63.5,28.5 63.5,27.5 63.5,26.5C 64.4816,23.0381 64.815,19.3714 64.5,15.5C 61.2869,15.19 58.2869,15.5233 55.5,16.5C 54.5,16.1667 53.8333,15.5 53.5,14.5C 57.1667,14.5 60.8333,14.5 64.5,14.5C 64.5,10.8333 64.5,7.16667 64.5,3.5C 60.5,2.83333 56.5,2.16667 52.5,1.5 Z"/></g>
<g><path style="opacity:1" fill="#dce2f0" d="M 65.5,3.5 C 69.1667,3.5 72.8333,3.5 76.5,3.5C 76.5,7.16667 76.5,10.8333 76.5,14.5C 72.8333,14.5 69.1667,14.5 65.5,14.5C 65.5,10.8333 65.5,7.16667 65.5,3.5 Z"/></g>
<g><path style="opacity:1" fill="#e0514c" d="M 29.5,10.5 C 32.2869,9.52333 35.2869,9.19 38.5,9.5C 39.1667,9.5 39.8333,9.5 40.5,9.5C 44.3086,10.4363 47.9753,11.7696 51.5,13.5C 51.5,13.8333 51.5,14.1667 51.5,14.5C 45.1065,11.9645 38.4398,10.9645 31.5,11.5C 31.1583,10.6618 30.4916,10.3284 29.5,10.5 Z"/></g>
<g><path style="opacity:1" fill="#f7e4e3" d="M 31.5,11.5 C 38.4398,10.9645 45.1065,11.9645 51.5,14.5C 51.8333,15.1667 52.1667,15.8333 52.5,16.5C 52.5,17.5 52.5,18.5 52.5,19.5C 52.1667,19.5 51.8333,19.5 51.5,19.5C 51.5,18.5 51.5,17.5 51.5,16.5C 47.5,16.5 43.5,16.5 39.5,16.5C 39.1667,20.5 38.8333,20.5 38.5,16.5C 34.5,16.5 30.5,16.5 26.5,16.5C 26.5,18.5 26.5,20.5 26.5,22.5C 25.5233,19.7131 25.19,16.7131 25.5,13.5C 27.2143,12.2616 29.2143,11.595 31.5,11.5 Z"/></g>
<g><path style="opacity:1" fill="#d8dceb" d="M 63.5,26.5 C 61.2437,22.9026 58.5771,19.5693 55.5,16.5C 58.2869,15.5233 61.2869,15.19 64.5,15.5C 64.815,19.3714 64.4816,23.0381 63.5,26.5 Z"/></g>
<g><path style="opacity:1" fill="#dbe1f0" d="M 65.5,15.5 C 69.1667,15.5 72.8333,15.5 76.5,15.5C 76.5,19.1667 76.5,22.8333 76.5,26.5C 72.8333,26.5 69.1667,26.5 65.5,26.5C 65.5,22.8333 65.5,19.1667 65.5,15.5 Z"/></g>
<g><path style="opacity:1" fill="#eebcb1" d="M 51.5,19.5 C 50.5577,22.6552 49.2243,25.6552 47.5,28.5C 45.8333,28.5 44.1667,28.5 42.5,28.5C 41.7638,26.7706 40.4305,25.7706 38.5,25.5C 38.5,24.1667 38.5,22.8333 38.5,21.5C 34.3998,21.2367 30.3998,21.5701 26.5,22.5C 26.5,20.5 26.5,18.5 26.5,16.5C 30.5,16.5 34.5,16.5 38.5,16.5C 38.8333,20.5 39.1667,20.5 39.5,16.5C 43.5,16.5 47.5,16.5 51.5,16.5C 51.5,17.5 51.5,18.5 51.5,19.5 Z"/></g>
<g><path style="opacity:1" fill="#de4e3c" d="M 51.5,14.5 C 51.8333,14.5 52.1667,14.5 52.5,14.5C 52.8333,14.5 53.1667,14.5 53.5,14.5C 53.8333,15.5 54.5,16.1667 55.5,16.5C 58.5771,19.5693 61.2437,22.9026 63.5,26.5C 63.5,27.5 63.5,28.5 63.5,29.5C 63.5654,29.9382 63.3988,30.2716 63,30.5C 62.7679,29.2625 62.2679,28.2625 61.5,27.5C 59.6046,22.9372 56.6046,19.2705 52.5,16.5C 52.1667,15.8333 51.8333,15.1667 51.5,14.5 Z"/></g>
<g><path style="opacity:1" fill="#e8a795" d="M 38.5,25.5 C 38.5,26.1667 38.1667,26.5 37.5,26.5C 33.8333,26.5 30.1667,26.5 26.5,26.5C 26.5,25.1667 26.5,23.8333 26.5,22.5C 30.3998,21.5701 34.3998,21.2367 38.5,21.5C 38.5,22.8333 38.5,24.1667 38.5,25.5 Z"/></g>
<g><path style="opacity:1" fill="#697aa0" d="M 51.5,19.5 C 51.8333,19.5 52.1667,19.5 52.5,19.5C 53.1239,19.9169 53.4573,20.5836 53.5,21.5C 51.9019,23.6979 50.5686,26.0313 49.5,28.5C 48.4523,30.9327 47.7856,30.9327 47.5,28.5C 49.2243,25.6552 50.5577,22.6552 51.5,19.5 Z"/></g>
<g><path style="opacity:1" fill="#6d6f90" d="M 38.5,25.5 C 40.4305,25.7706 41.7638,26.7706 42.5,28.5C 43.7035,30.6345 45.5368,31.9678 48,32.5C 48.6013,33.9653 48.1013,34.9653 46.5,35.5C 44.8394,33.1728 42.8394,31.1728 40.5,29.5C 38.2923,32.733 36.6257,36.3996 35.5,40.5C 34.4039,44.2887 33.7373,44.2887 33.5,40.5C 34.1667,40.5 34.5,40.1667 34.5,39.5C 35.7033,35.8899 36.7033,32.2232 37.5,28.5C 37.5,27.8333 37.5,27.1667 37.5,26.5C 38.1667,26.5 38.5,26.1667 38.5,25.5 Z"/></g>
<g><path style="opacity:1" fill="#dae1f0" d="M 65.5,39.5 C 65.5,37.5 65.5,35.5 65.5,33.5C 65.5,31.8333 65.5,30.1667 65.5,28.5C 69.1667,28.5 72.8333,28.5 76.5,28.5C 76.5,32.1667 76.5,35.8333 76.5,39.5C 72.8333,39.5 69.1667,39.5 65.5,39.5 Z"/></g>
<g><path style="opacity:1" fill="#e58b6f" d="M 37.5,28.5 C 36.7033,32.2232 35.7033,35.8899 34.5,39.5C 31.8333,39.5 29.1667,39.5 26.5,39.5C 26.5,35.8333 26.5,32.1667 26.5,28.5C 30.1667,28.5 33.8333,28.5 37.5,28.5 Z"/></g>
<g><path style="opacity:1" fill="#e58b70" d="M 13.5,23.5 C 17.122,23.2684 20.9553,23.6017 25,24.5C 25.4994,29.8229 25.666,35.1563 25.5,40.5C 20.9296,39.559 16.263,39.2256 11.5,39.5C 9.28577,38.6085 8.28577,36.9418 8.5,34.5C 9.22349,30.2981 10.8902,26.6314 13.5,23.5 Z"/></g>
<g><path style="opacity:1" fill="#f2c4b3" d="M 52.5,16.5 C 56.6046,19.2705 59.6046,22.9372 61.5,27.5C 58.7131,28.4767 55.7131,28.81 52.5,28.5C 52.5,36.1667 52.5,43.8333 52.5,51.5C 55.1873,51.3359 57.854,51.5026 60.5,52C 58.1902,52.4966 55.8568,52.6633 53.5,52.5C 44.7489,52.1968 36.0823,52.5301 27.5,53.5C 27.5,52.8333 27.5,52.1667 27.5,51.5C 31.1667,51.5 34.8333,51.5 38.5,51.5C 38.5,47.8333 38.5,44.1667 38.5,40.5C 37.5,40.5 36.5,40.5 35.5,40.5C 36.6257,36.3996 38.2923,32.733 40.5,29.5C 40.5,32.5 40.5,35.5 40.5,38.5C 44.1667,38.5 47.8333,38.5 51.5,38.5C 52.069,34.6707 51.4023,31.3373 49.5,28.5C 50.5686,26.0313 51.9019,23.6979 53.5,21.5C 53.4573,20.5836 53.1239,19.9169 52.5,19.5C 52.5,18.5 52.5,17.5 52.5,16.5 Z"/></g>
<g><path style="opacity:1" fill="#e48366" d="M 42.5,28.5 C 44.1667,28.5 45.8333,28.5 47.5,28.5C 47.7856,30.9327 48.4523,30.9327 49.5,28.5C 51.4023,31.3373 52.069,34.6707 51.5,38.5C 47.8333,38.5 44.1667,38.5 40.5,38.5C 40.5,35.5 40.5,32.5 40.5,29.5C 42.8394,31.1728 44.8394,33.1728 46.5,35.5C 48.1013,34.9653 48.6013,33.9653 48,32.5C 45.5368,31.9678 43.7035,30.6345 42.5,28.5 Z"/></g>
<g><path style="opacity:1" fill="#e14431" d="M 26.5,10.5 C 27.5,10.5 28.5,10.5 29.5,10.5C 30.4916,10.3284 31.1583,10.6618 31.5,11.5C 29.2143,11.595 27.2143,12.2616 25.5,13.5C 20.3025,15.4273 16.3025,18.7606 13.5,23.5C 10.8902,26.6314 9.22349,30.2981 8.5,34.5C 8.28577,36.9418 9.28577,38.6085 11.5,39.5C 12.2625,40.2679 13.2625,40.7679 14.5,41C 13.2068,41.49 11.8734,41.6567 10.5,41.5C 10.6495,42.552 10.4828,43.552 10,44.5C 9.13975,41.9165 7.97309,39.5832 6.5,37.5C 7.47383,24.8752 13.8072,16.2085 25.5,11.5C 26.1667,11.5 26.5,11.1667 26.5,10.5 Z"/></g>
<g><path style="opacity:1" fill="#f1c5b7" d="M 25.5,13.5 C 25.19,16.7131 25.5233,19.7131 26.5,22.5C 26.5,23.8333 26.5,25.1667 26.5,26.5C 30.1667,26.5 33.8333,26.5 37.5,26.5C 37.5,27.1667 37.5,27.8333 37.5,28.5C 33.8333,28.5 30.1667,28.5 26.5,28.5C 26.5,32.1667 26.5,35.8333 26.5,39.5C 29.1667,39.5 31.8333,39.5 34.5,39.5C 34.5,40.1667 34.1667,40.5 33.5,40.5C 31.1667,40.5 28.8333,40.5 26.5,40.5C 26.5,43.8333 26.5,47.1667 26.5,50.5C 26.1667,50.5 25.8333,50.5 25.5,50.5C 25.5,47.5 25.5,44.5 25.5,41.5C 25.5,41.1667 25.5,40.8333 25.5,40.5C 25.666,35.1563 25.4994,29.8229 25,24.5C 20.9553,23.6017 17.122,23.2684 13.5,23.5C 16.3025,18.7606 20.3025,15.4273 25.5,13.5 Z"/></g>
<g><path style="opacity:1" fill="#dbe2f1" d="M 65.5,40.5 C 69.1667,40.5 72.8333,40.5 76.5,40.5C 76.5,44.1667 76.5,47.8333 76.5,51.5C 72.8333,51.5 69.1667,51.5 65.5,51.5C 65.5,48.5 65.5,45.5 65.5,42.5C 65.5,41.8333 65.5,41.1667 65.5,40.5 Z"/></g>
<g><path style="opacity:1" fill="#e26143" d="M 64.5,42.5 C 64.5,42.8333 64.5,43.1667 64.5,43.5C 63.1359,45.22 62.1359,47.22 61.5,49.5C 60.3112,50.4287 58.9778,50.762 57.5,50.5C 55.4936,47.4723 54.1603,44.1389 53.5,40.5C 57.649,39.9197 61.3157,40.5864 64.5,42.5 Z"/></g>
<g><path style="opacity:1" fill="#eb8b6a" d="M 40.5,40.5 C 44.1667,40.5 47.8333,40.5 51.5,40.5C 51.5,44.1667 51.5,47.8333 51.5,51.5C 47.8333,51.5 44.1667,51.5 40.5,51.5C 40.5,47.8333 40.5,44.1667 40.5,40.5 Z"/></g>
<g><path style="opacity:1" fill="#e36648" d="M 6.5,37.5 C 7.97309,39.5832 9.13975,41.9165 10,44.5C 10.4828,43.552 10.6495,42.552 10.5,41.5C 11.8734,41.6567 13.2068,41.49 14.5,41C 13.2625,40.7679 12.2625,40.2679 11.5,39.5C 16.263,39.2256 20.9296,39.559 25.5,40.5C 25.5,40.8333 25.5,41.1667 25.5,41.5C 20.2895,44.878 16.7895,49.5447 15,55.5C 12.8328,53.1698 11.1662,50.5032 10,47.5C 9.31001,46.2617 8.81001,46.2617 8.5,47.5C 7.21543,44.4115 6.54877,41.0781 6.5,37.5 Z"/></g>
<g><path style="opacity:1" fill="#ed9373" d="M 33.5,40.5 C 33.7373,44.2887 34.4039,44.2887 35.5,40.5C 36.5,40.5 37.5,40.5 38.5,40.5C 38.5,44.1667 38.5,47.8333 38.5,51.5C 34.8333,51.5 31.1667,51.5 27.5,51.5C 27.5,51.1667 27.5,50.8333 27.5,50.5C 27.1667,50.5 26.8333,50.5 26.5,50.5C 26.5,47.1667 26.5,43.8333 26.5,40.5C 28.8333,40.5 31.1667,40.5 33.5,40.5 Z"/></g>
<g><path style="opacity:1" fill="#215fa1" d="M 31.5,44.5 C 32.5,44.5 33.5,44.5 34.5,44.5C 34.5,45.5 34.5,46.5 34.5,47.5C 33.5,47.5 32.5,47.5 31.5,47.5C 31.5,46.5 31.5,45.5 31.5,44.5 Z"/></g>
<g><path style="opacity:1" fill="#927d87" d="M 31.5,44.5 C 31.5,45.5 31.5,46.5 31.5,47.5C 30.7377,49.2624 29.4044,50.2624 27.5,50.5C 29.2896,48.7278 30.6229,46.7278 31.5,44.5 Z"/></g>
<g><path style="opacity:1" fill="#155ca0" d="M 25.5,50.5 C 25.8333,50.5 26.1667,50.5 26.5,50.5C 26.8333,50.5 27.1667,50.5 27.5,50.5C 27.5,50.8333 27.5,51.1667 27.5,51.5C 27.5,52.1667 27.5,52.8333 27.5,53.5C 26.8333,53.5 26.1667,53.5 25.5,53.5C 24.1667,52.5 24.1667,51.5 25.5,50.5 Z"/></g>
<g><path style="opacity:1" fill="#f4b397" d="M 53.5,52.5 C 53.0825,53.2216 52.4158,53.7216 51.5,54C 52.717,55.6477 53.5503,57.481 54,59.5C 55.1096,57.9632 56.6096,57.2965 58.5,57.5C 58.1667,58.1667 57.8333,58.8333 57.5,59.5C 56.8333,59.5 56.5,59.8333 56.5,60.5C 55.8333,60.5 55.5,60.8333 55.5,61.5C 54.8333,61.5 54.5,61.8333 54.5,62.5C 52.0462,63.2271 49.7128,64.2271 47.5,65.5C 45.7354,64.5386 43.7354,64.2053 41.5,64.5C 41.5324,59.7871 39.1991,58.2871 34.5,60C 32.2189,61.851 32.2189,63.5177 34.5,65C 32.2922,65.1909 30.2922,65.6909 28.5,66.5C 25.2938,65.5459 22.2938,64.2125 19.5,62.5C 20.9527,62.0707 22.6194,61.904 24.5,62C 24.1667,61.6667 23.8333,61.3333 23.5,61C 24.1087,58.4896 25.442,56.4896 27.5,55C 26.5842,54.7216 25.9175,54.2216 25.5,53.5C 26.1667,53.5 26.8333,53.5 27.5,53.5C 36.0823,52.5301 44.7489,52.1968 53.5,52.5 Z"/></g>
<g><path style="opacity:1" fill="#e8886a" d="M 61.5,27.5 C 62.2679,28.2625 62.7679,29.2625 63,30.5C 63.3988,30.2716 63.5654,29.9382 63.5,29.5C 64.1667,30.8333 64.8333,32.1667 65.5,33.5C 65.5,35.5 65.5,37.5 65.5,39.5C 65.5,39.8333 65.5,40.1667 65.5,40.5C 65.5,41.1667 65.5,41.8333 65.5,42.5C 65.1667,42.5 64.8333,42.5 64.5,42.5C 61.3157,40.5864 57.649,39.9197 53.5,40.5C 54.1603,44.1389 55.4936,47.4723 57.5,50.5C 58.9778,50.762 60.3112,50.4287 61.5,49.5C 62.1359,47.22 63.1359,45.22 64.5,43.5C 63.9009,46.9631 62.9009,50.2964 61.5,53.5C 60.8902,54.391 60.5569,55.391 60.5,56.5C 59.5084,56.3284 58.8417,56.6618 58.5,57.5C 56.6096,57.2965 55.1096,57.9632 54,59.5C 53.5503,57.481 52.717,55.6477 51.5,54C 52.4158,53.7216 53.0825,53.2216 53.5,52.5C 55.8568,52.6633 58.1902,52.4966 60.5,52C 57.854,51.5026 55.1873,51.3359 52.5,51.5C 52.5,43.8333 52.5,36.1667 52.5,28.5C 55.7131,28.81 58.7131,28.4767 61.5,27.5 Z"/></g>
<g><path style="opacity:1" fill="#ee9375" d="M 25.5,41.5 C 25.5,44.5 25.5,47.5 25.5,50.5C 24.1667,51.5 24.1667,52.5 25.5,53.5C 25.9175,54.2216 26.5842,54.7216 27.5,55C 25.442,56.4896 24.1087,58.4896 23.5,61C 23.8333,61.3333 24.1667,61.6667 24.5,62C 22.6194,61.904 20.9527,62.0707 19.5,62.5C 19.1667,62.5 18.8333,62.5 18.5,62.5C 18.5,61.8333 18.1667,61.5 17.5,61.5C 14.8347,58.6653 12.3347,55.6653 10,52.5C 8.99136,50.9751 8.49136,49.3084 8.5,47.5C 8.81001,46.2617 9.31001,46.2617 10,47.5C 11.1662,50.5032 12.8328,53.1698 15,55.5C 16.7895,49.5447 20.2895,44.878 25.5,41.5 Z"/></g>
<g><path style="opacity:0.243" fill="#5781bc" d="M 60.5,56.5 C 60.8333,56.5 61.1667,56.5 61.5,56.5C 65.8461,56.3343 70.1794,56.501 74.5,57C 74.9574,57.414 75.2907,57.914 75.5,58.5C 69.5368,59.4959 63.5368,59.8293 57.5,59.5C 57.8333,58.8333 58.1667,58.1667 58.5,57.5C 58.8417,56.6618 59.5084,56.3284 60.5,56.5 Z"/></g>
<g><path style="opacity:0.157" fill="#dbe0f0" d="M 61.5,56.5 C 65.9811,55.3516 70.6478,55.1849 75.5,56C 77.1066,57.049 77.7733,58.549 77.5,60.5C 70.5,60.5 63.5,60.5 56.5,60.5C 56.5,59.8333 56.8333,59.5 57.5,59.5C 63.5368,59.8293 69.5368,59.4959 75.5,58.5C 75.2907,57.914 74.9574,57.414 74.5,57C 70.1794,56.501 65.8461,56.3343 61.5,56.5 Z"/></g>
<g><path style="opacity:1" fill="#fbd5bf" d="M 47.5,65.5 C 42.9389,66.8115 38.2723,67.4781 33.5,67.5C 31.7085,67.634 30.0418,67.3007 28.5,66.5C 30.2922,65.6909 32.2922,65.1909 34.5,65C 32.2189,63.5177 32.2189,61.851 34.5,60C 39.1991,58.2871 41.5324,59.7871 41.5,64.5C 43.7354,64.2053 45.7354,64.5386 47.5,65.5 Z"/></g>
<g><path style="opacity:0.498" fill="#d67c59" d="M 17.5,61.5 C 18.1667,61.5 18.5,61.8333 18.5,62.5C 18.8333,62.5 19.1667,62.5 19.5,62.5C 22.2938,64.2125 25.2938,65.5459 28.5,66.5C 30.0418,67.3007 31.7085,67.634 33.5,67.5C 33.67,68.8221 33.3366,69.9887 32.5,71C 33.7177,72.4161 35.0511,72.2494 36.5,70.5C 38.9746,71.6773 39.9746,73.6773 39.5,76.5C 45.4856,75.4851 51.4856,74.4851 57.5,73.5C 54.2322,76.254 50.5655,78.254 46.5,79.5C 39.8333,79.5 33.1667,79.5 26.5,79.5C 22.8241,78.3224 19.1574,76.8224 15.5,75C 10.1401,69.5857 10.8068,65.0857 17.5,61.5 Z"/></g>
<g><path style="opacity:0.584" fill="#d57f59" d="M 55.5,61.5 C 60.6863,64.9836 61.3529,68.9836 57.5,73.5C 51.4856,74.4851 45.4856,75.4851 39.5,76.5C 39.9746,73.6773 38.9746,71.6773 36.5,70.5C 35.0511,72.2494 33.7177,72.4161 32.5,71C 33.3366,69.9887 33.67,68.8221 33.5,67.5C 38.2723,67.4781 42.9389,66.8115 47.5,65.5C 49.7128,64.2271 52.0462,63.2271 54.5,62.5C 55.1667,62.5 55.5,62.1667 55.5,61.5 Z"/></g>
</svg>
