<?xml version="1.0" encoding="UTF-8"?>
<!DOCTYPE svg PUBLIC "-//W3C//DTD SVG 1.1//EN" "http://www.w3.org/Graphics/SVG/1.1/DTD/svg11.dtd">
<svg xmlns="http://www.w3.org/2000/svg" version="1.1" width="204px" height="68px" style="shape-rendering:geometricPrecision; text-rendering:geometricPrecision; image-rendering:optimizeQuality; fill-rule:evenodd; clip-rule:evenodd" xmlns:xlink="http://www.w3.org/1999/xlink">
<g><path style="opacity:1" fill="#348034" d="M -0.5,-0.5 C 67.5,-0.5 135.5,-0.5 203.5,-0.5C 203.5,22.1667 203.5,44.8333 203.5,67.5C 135.5,67.5 67.5,67.5 -0.5,67.5C -0.5,44.8333 -0.5,22.1667 -0.5,-0.5 Z"/></g>
<g><path style="opacity:1" fill="#eef5ee" d="M 65.5,16.5 C 65.3893,15.8826 65.056,15.3826 64.5,15C 66.5,13 68.5,11 70.5,9C 67.5356,9.77187 65.2023,11.6052 63.5,14.5C 61.2539,15.2142 58.9206,15.0475 56.5,14C 60.1667,11 63.8333,8 67.5,5C 71.0676,6.42288 74.7342,6.92288 78.5,6.5C 75.6828,9.81785 72.6828,12.9845 69.5,16C 68.2068,16.49 66.8734,16.6567 65.5,16.5 Z"/></g>
<g><path style="opacity:1" fill="#9fc39f" d="M 65.5,16.5 C 64.1667,16.5 63.5,15.8333 63.5,14.5C 65.2023,11.6052 67.5356,9.77187 70.5,9C 68.5,11 66.5,13 64.5,15C 65.056,15.3826 65.3893,15.8826 65.5,16.5 Z"/></g>
<g><path style="opacity:1" fill="#f9fbf9" d="M 80.5,32.5 C 66.5097,26.9189 52.1763,22.4189 37.5,19C 51.7455,24.1373 66.0788,28.9707 80.5,33.5C 78.4516,38.5986 76.1183,43.5986 73.5,48.5C 59.1981,49.3815 45.5315,52.7148 32.5,58.5C 29.6595,56.9136 26.9928,55.0803 24.5,53C 27.0386,50.6303 29.3719,48.1303 31.5,45.5C 35.8333,41.5 40.1667,37.5 44.5,33.5C 46.5932,34.0447 48.5932,34.878 50.5,36C 48.1667,38.3333 45.8333,40.6667 43.5,43C 50.1311,41.3422 56.7978,39.6756 63.5,38C 51.1667,33 38.8333,28 26.5,23C 29.5961,20.7853 32.9295,19.1186 36.5,18C 36.1667,17.6667 35.8333,17.3333 35.5,17C 37.8333,15.5 40.1667,14 42.5,12.5C 57.1985,16.3732 71.8652,20.3732 86.5,24.5C 84.9448,27.6617 82.9448,30.3284 80.5,32.5 Z"/></g>
<g><path style="opacity:1" fill="#f5f9f5" d="M 166.5,19.5 C 166.5,25.5 166.5,31.5 166.5,37.5C 165.5,37.5 164.5,37.5 163.5,37.5C 163.666,32.4889 163.499,27.4889 163,22.5C 162.487,23.5266 161.987,24.5266 161.5,25.5C 160.107,29.5102 158.607,33.5102 157,37.5C 155.667,38.8333 154.333,38.8333 153,37.5C 150.804,32.5797 148.804,27.5797 147,22.5C 146.501,27.4889 146.334,32.4889 146.5,37.5C 145.5,37.5 144.5,37.5 143.5,37.5C 143.5,31.5 143.5,25.5 143.5,19.5C 145.035,18.2121 146.701,18.2121 148.5,19.5C 150.667,24.5 152.833,29.5 155,34.5C 156.804,29.4203 158.804,24.4203 161,19.5C 162.828,18.2475 164.661,18.2475 166.5,19.5 Z"/></g>
<g><path style="opacity:1" fill="#f0f5f0" d="M 173.5,18.5 C 189.111,16.9302 193.445,23.0969 186.5,37C 173.438,41.5643 167.938,37.0643 170,23.5C 170.997,21.6769 172.164,20.0103 173.5,18.5 Z"/></g>
<g><path style="opacity:1" fill="#e9f1e9" d="M 105.5,18.5 C 110.167,18.5 114.833,18.5 119.5,18.5C 119.5,19.5 119.5,20.5 119.5,21.5C 115.5,21.5 111.5,21.5 107.5,21.5C 107.297,23.3904 107.963,24.8904 109.5,26C 112.5,27 115.5,28 118.5,29C 121.311,32.2935 120.978,35.2935 117.5,38C 113.179,38.499 108.846,38.6657 104.5,38.5C 104.5,37.5 104.5,36.5 104.5,35.5C 108.182,35.6653 111.848,35.4986 115.5,35C 116.022,34.4387 116.355,33.772 116.5,33C 112.555,30.444 108.389,28.2773 104,26.5C 103.109,23.5024 103.609,20.8357 105.5,18.5 Z"/></g>
<g><path style="opacity:1" fill="#c9dec9" d="M 126.5,31.5 C 125.834,27.6475 125.167,23.6475 124.5,19.5C 123.507,24.1196 123.173,28.7863 123.5,33.5C 122.513,28.6946 122.179,23.6946 122.5,18.5C 123.833,18.5 125.167,18.5 126.5,18.5C 126.5,22.8333 126.5,27.1667 126.5,31.5 Z"/></g>
<g><path style="opacity:1" fill="#f3f8f3" d="M 123.5,33.5 C 123.173,28.7863 123.507,24.1196 124.5,19.5C 125.167,23.6475 125.834,27.6475 126.5,31.5C 127.884,35.4606 130.551,36.4606 134.5,34.5C 135.495,29.2079 135.828,23.8746 135.5,18.5C 136.833,18.5 138.167,18.5 139.5,18.5C 139.666,23.8437 139.499,29.1771 139,34.5C 135.95,38.1303 132.117,39.297 127.5,38C 125.249,37.2525 123.916,35.7525 123.5,33.5 Z"/></g>
<g><path style="opacity:1" fill="#c1d8c1" d="M 143.5,19.5 C 143.5,25.5 143.5,31.5 143.5,37.5C 144.5,37.5 145.5,37.5 146.5,37.5C 145.432,38.4345 144.099,38.7678 142.5,38.5C 142.177,31.9779 142.51,25.6446 143.5,19.5 Z"/></g>
<g><path style="opacity:1" fill="#6aa26a" d="M 166.5,19.5 C 167.49,25.6446 167.823,31.9779 167.5,38.5C 165.901,38.7678 164.568,38.4345 163.5,37.5C 164.5,37.5 165.5,37.5 166.5,37.5C 166.5,31.5 166.5,25.5 166.5,19.5 Z"/></g>
<g><path style="opacity:1" fill="#3a8439" d="M 175.5,21.5 C 184.507,20.0107 187.674,23.6774 185,32.5C 184.692,33.3081 184.192,33.9747 183.5,34.5C 176.691,37.4344 173.358,35.2678 173.5,28C 173.338,25.498 174.005,23.3313 175.5,21.5 Z"/></g>
<g><path style="opacity:1" fill="#619c5f" d="M 80.5,32.5 C 80.5,32.8333 80.5,33.1667 80.5,33.5C 66.0788,28.9707 51.7455,24.1373 37.5,19C 52.1763,22.4189 66.5097,26.9189 80.5,32.5 Z"/></g>
<g><path style="opacity:1" fill="#66a066" d="M 163.5,37.5 C 162.833,33.5 162.167,29.5 161.5,25.5C 161.987,24.5266 162.487,23.5266 163,22.5C 163.499,27.4889 163.666,32.4889 163.5,37.5 Z"/></g>
<g><path style="opacity:1" fill="#f5f8f5" d="M 42.5,32.5 C 38.5,36.5 34.5,40.5 30.5,44.5C 27.7895,46.9446 24.9562,49.2779 22,51.5C 19.8333,50 17.6667,48.5 15.5,47C 22.1667,41.6667 28.8333,36.3333 35.5,31C 38.0652,30.3911 40.3985,30.8911 42.5,32.5 Z"/></g>
<g><path style="opacity:1" fill="#5d995b" d="M 42.5,32.5 C 43.4916,32.3284 44.1583,32.6618 44.5,33.5C 40.1667,37.5 35.8333,41.5 31.5,45.5C 31.5,44.8333 31.1667,44.5 30.5,44.5C 34.5,40.5 38.5,36.5 42.5,32.5 Z"/></g>
</svg>
